Following the quelling of Lajos Kossuth's 1848 revolution against Habsburg rule in Hungary, prison camps were set up for people suspected of being Kossuth's supporters. Around 20 years later, some members of famed highwayman Sándor Rózsa's guerilla band, believed to be some of Kossuth's last supporters, are known to be interred among the prisoners in a camp. During the film, the prison staff try to weed out and identify the rebels and find out if Sándor is among them using various means of mental and physical torture and trickery. When one of the guerillas, János Gajdar, is identified as a murderer by an old woman, he starts aiding his captors by acting as an informant. Gajdar is told that if he can show his captors a man who has killed more people than himself, he will be spared. Fearing for his life, he turns in several people his captors had been looking for by name, but couldn't identify among the prisoners.

   General
      Complete name : Szegenylegenyek.avi
      Format : AVI
      Format/Info : Audio Video Interleave
      File size : 1.21 GiB
      Duration : 1h 26mn
      Overall bit rate : 2 002 Kbps
      Writing application : FairUse Wizard - http://fairusewizard.com
   Video #0
      ID : 0
      Format : MPEG-4 Visual
      Format profile : AdvancedSimple@L5
      Format settings, BVOP : Yes
      Format settings, QPel : No
      Format settings, GMC : No warppoints
      Format settings, Matrix : Default (MPEG)
      Muxing mode : Packed bitstream
      Codec ID : XVID
      Codec ID/Hint : XviD
      Duration : 1h 26mn
      Bit rate : 1 737 Kbps
      Width : 688 pixels
      Height : 272 pixels
      Display aspect ratio : 2.529
      Frame rate : 25.000 fps
      Resolution : 24 bits
      Colorimetry : 4:2:0
      Scan type : Progressive
      Bits/(Pixel*Frame) : 0.371
      Stream size : 1.05 GiB (87%)
      Writing library : XviD 1.2.1 (UTC 2008-12-04)
   Audio #1
      ID : 1
      Format : AC-3
      Format/Info : Audio Coding 3
      Codec ID : 2000
      Duration : 1h 26mn
      Bit rate mode : Constant
      Bit rate : 256 Kbps
      Channel(s) : 2 channels
      Channel positions : L R
      Sampling rate : 48.0 KHz
      Stream size : 159 MiB (13%)
      Alignment : Split accross interleaves
      Interleave, duration : 40 ms (1.00 video frame)
      Interleave, preload duration : 500 ms
 
http://www.imdb.com/title/tt0059776/

Hungarian audio; English and Portuguese subtitles

My rip

Miklos Jancso - Szegenylegenyek [The Round-Up] (1966)